External Loads File
version=1
nRows=70
nColumns=13
Range=5.000000e-03-10 seconds
endheader
time 	forceRightX 	forceRightY 	forceRightZ 	pointRightX 	pointRightY 	pointRightZ 	forceLeftX 	forceLeftY 	forceLeftZ 	pointLeftX 	pointLeftY 	pointLeftZ 		
7.505000 -137.638238 652.901274 -0.000000 0.363129 0.274155 -0.159402 50.101043 -5.649495 -0.000000 0.087784 0.370691 -0.400636
7.510000 -118.363087 658.439949 -0.000000 0.360635 0.263805 -0.159755 44.516127 -16.975355 -0.000000 0.090907 0.381208 -0.400516
7.515000 -97.221724 661.020379 -0.000000 0.356946 0.253643 -0.159329 37.933892 -28.387154 -0.000000 0.094675 0.391555 -0.400543
7.520000 -75.721645 660.217879 -0.000000 0.353000 0.243857 -0.159183 30.681430 -39.591102 -0.000000 0.099145 0.401691 -0.400597
7.525000 -53.982128 655.964142 -0.000000 0.348435 0.234356 -0.159034 23.098322 -50.529060 -0.000000 0.104032 0.411566 -0.400667
7.530000 -32.713497 648.211345 -0.000000 0.343254 0.225319 -0.158856 15.486912 -61.209371 -0.000000 0.109354 0.421083 -0.400654
7.535000 -11.847830 637.026988 -0.000000 0.337587 0.216555 -0.158668 7.931112 -71.618134 -0.000000 0.115206 0.430247 -0.400773
7.540000 7.760288 622.513669 -0.000000 0.331427 0.208211 -0.158409 0.465822 -81.530121 -0.000000 0.121304 0.439057 -0.400761
7.545000 26.656360 604.884295 -0.000000 0.324755 0.200323 -0.158129 -7.101892 -90.510276 -0.000000 0.128182 0.447450 -0.400223
7.550000 44.205491 584.449115 -0.000000 0.317620 0.192903 -0.157783 -14.797802 -97.987826 -0.000000 0.135555 0.455318 -0.400708
7.555000 59.631056 561.708347 -0.000000 0.310088 0.185937 -0.157425 -22.514070 -103.416224 -0.000000 0.142981 0.462652 -0.400811
7.560000 73.106321 537.245427 -0.000000 0.302045 0.179535 -0.157071 -30.221766 -106.300054 -0.000000 0.150412 0.469525 -0.400374
7.565000 85.675180 511.589081 -0.000000 0.293576 0.173570 -0.156664 -38.031711 -106.150960 -0.000000 0.158557 0.475740 -0.400360
7.570000 96.384923 485.600358 -0.000000 0.284819 0.168333 -0.156278 -45.580113 -102.701889 -0.000000 0.166824 0.481373 -0.400400
7.575000 106.274118 459.774424 -0.000000 0.275709 0.163645 -0.155989 -52.810110 -95.725274 -0.000000 0.175589 0.486477 -0.400449
7.580000 114.752151 434.745560 -0.000000 0.266316 0.159646 -0.155800 -59.259756 -85.407812 -0.000000 0.184343 0.490800 -0.400535
7.585000 122.417350 410.613629 -0.000000 0.256683 0.156308 -0.155674 -64.707822 -72.077257 -0.000000 0.193269 0.494636 -0.400690
7.590000 129.002917 387.386463 -0.000000 0.246933 0.153629 -0.155690 -68.805241 -56.355042 -0.000000 0.202188 0.497448 -0.400536
7.595000 135.011071 364.535440 -0.000000 0.236993 0.151633 -0.155760 -71.413162 -38.819453 -0.000000 0.211292 0.499881 -0.400678
7.600000 139.572696 341.803801 -0.000000 0.227232 0.150329 -0.156160 -72.360782 -20.311550 -0.000000 0.220194 0.501608 -0.400632
7.605000 142.992347 318.445132 -0.000000 0.217380 0.149886 -0.156385 -71.810697 -1.415466 -0.000000 0.228917 0.502716 -0.400566
7.610000 144.921403 293.972598 -0.000000 0.207722 0.150121 -0.156518 -70.060333 17.246746 -0.000000 0.237457 0.503168 -0.400585
7.615000 145.207403 267.931356 -0.000000 0.198242 0.150892 -0.156504 -67.615595 35.277164 -0.000000 0.245748 0.502782 -0.400524
7.620000 143.629466 240.132870 -0.000000 0.189011 0.152387 -0.156469 -65.157502 52.545247 -0.000000 0.253601 0.501512 -0.400593
7.625000 140.323967 210.508395 -0.000000 0.180038 0.154631 -0.156630 -63.404709 69.346347 -0.000000 0.261154 0.499486 -0.400742
7.630000 135.408049 179.366791 -0.000000 0.171372 0.157733 -0.156891 -63.048518 86.284022 -0.000000 0.268341 0.496572 -0.401031
7.635000 129.109937 147.356419 -0.000000 0.162826 0.161236 -0.157166 -64.650716 104.213696 -0.000000 0.275119 0.492807 -0.401343
7.640000 121.755072 115.412846 -0.000000 0.154532 0.165419 -0.157330 -68.584208 124.104879 -0.000000 0.281696 0.488392 -0.401650
7.645000 113.670172 84.711319 -0.000000 0.146660 0.170304 -0.157562 -75.119204 146.800217 -0.000000 0.288014 0.483093 -0.401918
7.650000 105.325606 56.308120 -0.000000 0.138777 0.175782 -0.158178 -84.214181 172.927005 -0.000000 0.294012 0.476966 -0.402260
7.655000 97.043628 31.293850 -0.000000 0.131282 0.181696 -0.158307 -95.864591 202.542238 -0.000000 0.299992 0.470123 -0.402562
7.660000 89.148107 10.454734 -0.000000 0.124203 0.188099 -0.158236 -109.864016 235.164409 -0.000000 0.305974 0.462715 -0.402750
7.665000 81.905519 -5.796311 -0.000000 0.117384 0.194935 -0.158194 -125.730849 269.842685 -0.000000 0.311922 0.454772 -0.402773
7.670000 75.519932 -17.347228 -0.000000 0.111000 0.202185 -0.158055 -142.874645 305.251629 -0.000000 0.317990 0.446421 -0.402732
7.675000 70.161988 -24.359474 -0.000000 0.105083 0.209886 -0.157879 -160.668894 339.945696 -0.000000 0.323878 0.437594 -0.402627
7.680000 65.969304 -27.230522 -0.000000 0.099688 0.217903 -0.157660 -178.582211 372.633948 -0.000000 0.329516 0.428413 -0.402377
7.685000 63.005202 -26.618532 -0.000000 0.094818 0.226281 -0.157425 -195.896565 402.537038 -0.000000 0.335047 0.419013 -0.402425
7.690000 61.290839 -23.274284 -0.000000 0.090397 0.235021 -0.157416 -212.426744 429.107369 -0.000000 0.339894 0.409349 -0.402435
7.695000 60.733003 -18.129934 -0.000000 0.086572 0.244100 -0.157311 -227.604923 452.452004 -0.000000 0.344583 0.399525 -0.402469
7.700000 61.173666 -12.091854 -0.000000 0.083227 0.253582 -0.157208 -241.099423 472.966044 -0.000000 0.348890 0.389469 -0.402438
7.705000 62.392249 -5.884733 -0.000000 0.080491 0.263100 -0.157188 -253.256337 490.996882 -0.000000 0.353063 0.379215 -0.402217
7.710000 64.069160 -0.172424 -0.000000 0.078370 0.272986 -0.157207 -263.805067 507.390928 -0.000000 0.356576 0.368697 -0.401926
7.715000 65.826177 4.576262 -0.000000 0.076753 0.283050 -0.157274 -272.928874 522.838129 -0.000000 0.359466 0.358006 -0.402187
7.720000 67.237516 7.999550 -0.000000 0.075797 0.293198 -0.157373 -280.700578 538.038687 -0.000000 0.362093 0.347255 -0.403024
7.725000 67.873130 9.717270 -0.000000 0.075460 0.303647 -0.157528 -286.183641 554.051144 -0.000000 0.363744 0.336225 -0.402800
7.730000 67.282575 9.634749 -0.000000 0.075753 0.314061 -0.157650 -289.747191 570.973552 -0.000000 0.365067 0.325255 -0.402931
7.735000 65.086399 7.615703 -0.000000 0.076764 0.324712 -0.157969 -290.084506 589.371409 -0.000000 0.365734 0.314276 -0.403020
7.740000 61.004322 3.821483 -0.000000 0.078293 0.335350 -0.158159 -287.124744 608.739800 -0.000000 0.365806 0.303395 -0.403072
7.745000 54.950609 -1.532967 -0.000000 0.080439 0.345974 -0.158314 -280.736396 628.335959 -0.000000 0.365459 0.292775 -0.403556
7.750000 47.030914 -8.327519 -0.000000 0.083394 0.356661 -0.158414 -269.547050 647.918320 -0.000000 0.364002 0.282157 -0.403042
7.755000 37.491843 -16.282190 -0.000000 0.086699 0.367755 -0.158738 -253.851187 666.570637 -0.000000 0.362272 0.271769 -0.402932
7.760000 26.748965 -25.047017 -0.000000 0.090721 0.378031 -0.158944 -235.965225 682.846664 -0.000000 0.359866 0.261564 -0.402852
7.765000 15.198672 -34.465579 -0.000000 0.095147 0.388179 -0.159135 -215.167637 696.649813 -0.000000 0.356861 0.251623 -0.402799
7.770000 3.262163 -44.292629 -0.000000 0.100075 0.398037 -0.159236 -192.336161 707.359654 -0.000000 0.353326 0.242037 -0.402742
7.775000 -8.783028 -54.296790 -0.000000 0.105590 0.407678 -0.159371 -166.794557 714.852222 -0.000000 0.349181 0.232479 -0.402707
7.780000 -20.573191 -64.223566 -0.000000 0.111492 0.417080 -0.159433 -140.118861 718.482762 -0.000000 0.344486 0.223360 -0.402682
7.785000 -31.851092 -73.828277 -0.000000 0.117815 0.426155 -0.159590 -112.885151 718.008085 -0.000000 0.339276 0.214714 -0.402568
7.790000 -42.444019 -82.848645 -0.000000 0.124548 0.434828 -0.159709 -85.552856 713.256422 -0.000000 0.333523 0.206554 -0.402533
7.795000 -52.277868 -90.957790 -0.000000 0.131569 0.443318 -0.159882 -58.238964 704.137495 -0.000000 0.327360 0.198671 -0.402455
7.800000 -60.922712 -98.003693 -0.000000 0.138034 0.451088 -0.161062 -33.800887 690.454766 -0.000000 0.320741 0.191306 -0.402423
7.805000 -68.905060 -103.242957 -0.000000 0.146166 0.458592 -0.160665 -8.209868 672.519166 -0.000000 0.313753 0.184553 -0.402382
7.810000 -76.010960 -106.369751 -0.000000 0.154900 0.465781 -0.161172 16.636090 650.265267 -0.000000 0.306403 0.178300 -0.402317
7.815000 -81.749111 -107.338813 -0.000000 0.162924 0.472029 -0.161477 37.497284 624.109200 -0.000000 0.298746 0.172621 -0.402248
7.820000 -86.611104 -105.424884 -0.000000 0.171353 0.478075 -0.161947 57.134091 594.485745 -0.000000 0.290720 0.167466 -0.402174
7.825000 -90.391932 -100.480153 -0.000000 0.179897 0.483437 -0.162122 74.250145 562.053727 -0.000000 0.282474 0.163021 -0.402059
7.830000 -93.207802 -92.243183 -0.000000 0.188838 0.488155 -0.162460 89.632890 527.286050 -0.000000 0.273994 0.159087 -0.401947
7.835000 -95.025260 -80.753664 -0.000000 0.198289 0.492114 -0.162672 103.451801 490.501375 -0.000000 0.265286 0.155745 -0.401828
7.840000 -95.580553 -66.572749 -0.000000 0.207340 0.495540 -0.162917 114.592539 452.089438 -0.000000 0.256358 0.153081 -0.401758
7.845000 -94.983174 -50.152377 -0.000000 0.216652 0.498401 -0.163135 123.850044 411.948148 -0.000000 0.247348 0.151071 -0.401691
7.850000 -93.299888 -32.291882 -0.000000 0.226028 0.500625 -0.163480 130.904928 370.270645 -0.000000 0.238238 0.149794 -0.401533
